<?xml version="1.0" standalone="no"?>
<!DOCTYPE svg PUBLIC "-//W3C//DTD SVG 20010904//EN"
 "http://www.w3.org/TR/2001/REC-SVG-20010904/DTD/svg10.dtd">
<svg version="1.0" xmlns="http://www.w3.org/2000/svg"
 width="190.000000pt" height="190.000000pt" viewBox="0 0 190.000000 190.000000"
 preserveAspectRatio="xMidYMid meet">
<metadata>
Created by potrace 1.11, written by Peter Selinger 2001-2013
</metadata>
<g transform="translate(0.000000,190.000000) scale(0.100000,-0.100000)"
fill="#000000" stroke="none">
<path d="M800 1869 c-84 -15 -189 -48 -254 -81 l-60 -30 25 -19 c75 -58 332
-166 375 -157 11 2 -1 15 -37 40 -52 36 -150 128 -136 128 3 0 37 -22 74 -49
102 -74 195 -121 281 -142 80 -20 202 -74 238 -106 11 -10 42 -51 68 -90 54
-83 96 -123 167 -159 63 -31 95 -29 91 6 l-3 25 16 -22 c65 -92 56 -203 -21
-275 -42 -38 -59 -39 -59 -3 0 27 -3 30 -29 27 -28 -4 -28 -3 -22 30 8 42 1
50 -29 38 -20 -8 -26 -4 -44 25 -50 86 -222 164 -398 182 -62 7 -69 18 -15 27
100 16 230 -2 314 -45 51 -26 60 -24 52 9 -12 45 -52 100 -96 133 -88 63 -186
93 -372 114 -185 20 -318 80 -442 197 l-53 50 -50 -36 c-67 -50 -155 -146
-213 -235 -66 -101 -65 -110 8 -60 47 32 165 89 185 89 6 0 -17 -21 -52 -47
-147 -108 -226 -219 -265 -373 -45 -177 33 -476 166 -634 22 -27 44 -55 49
-63 4 -8 16 -16 27 -17 10 -2 18 -9 16 -16 -1 -6 2 -9 8 -5 5 3 24 -3 40 -15
17 -12 30 -16 30 -10 0 18 49 35 62 22 13 -13 42 -17 35 -5 -3 5 5 8 16 9 12
0 64 2 115 4 86 3 92 5 92 25 0 11 5 26 11 32 16 16 9 24 -76 88 -41 31 -75
58 -75 60 0 3 14 12 30 20 30 16 31 15 140 -52 l109 -67 -40 -43 c-21 -23 -51
-69 -65 -100 -15 -32 -28 -61 -31 -65 -9 -17 18 -7 39 15 44 42 106 87 149
106 43 19 43 19 71 0 90 -64 188 -198 188 -256 0 -27 9 -28 81 -7 242 72 474
291 570 538 65 168 80 376 39 541 -80 325 -351 600 -675 685 -92 25 -280 34
-365 19z m50 -566 c-50 -39 -90 -86 -119 -140 -15 -25 -37 -50 -50 -55 -22 -8
-23 -6 -16 19 20 80 72 143 150 179 66 31 78 30 35 -3z m-370 -158 c0 -9 -7
-30 -16 -46 -8 -17 -18 -58 -22 -91 l-7 -61 -65 -39 c-36 -21 -80 -54 -97 -73
-18 -19 -33 -29 -33 -21 0 23 69 120 105 146 25 19 34 35 39 66 8 59 35 122
54 127 33 9 42 7 42 -8z m345 -28 c-27 -48 -55 -146 -55 -193 0 -30 -13 -44
-42 -44 -12 0 -5 81 12 142 11 38 83 138 100 138 5 0 -2 -19 -15 -43z m-365
-323 c7 -26 28 -68 47 -95 39 -57 39 -60 11 -85 -11 -10 -38 -45 -59 -77 -20
-32 -40 -54 -42 -50 -3 4 4 42 15 83 l19 75 -25 55 c-14 30 -28 71 -32 92 -5
30 -3 37 13 41 36 9 41 6 53 -39z"/>
<path d="M1510 1131 c0 -14 48 -42 55 -32 10 18 -7 41 -31 41 -13 0 -24 -4
-24 -9z"/>
</g>
</svg>
